<mxfile host="app.diagrams.net" modified="2024-06-08T22:14:08.027Z" agent="Mozilla/5.0 (Windows NT 10.0; Win64; x64) AppleWebKit/537.36 (KHTML, like Gecko) Chrome/125.0.0.0 Safari/537.36" etag="IyspbI_ecdsZQeyRZp3J" version="24.4.9" type="device" pages="2">
  <diagram name="Page-1" id="rtqmb1G7pmRIMdZEJblD">
    <mxGraphModel dx="592" dy="312" grid="0" gridSize="10" guides="1" tooltips="1" connect="1" arrows="1" fold="1" page="1" pageScale="1" pageWidth="1100" pageHeight="1700" math="0" shadow="0">
      <root>
        <mxCell id="0" />
        <mxCell id="1" parent="0" />
        <mxCell id="8kIfGoQ6aiD22AjwGAcP-14" value="&lt;font color=&quot;#ffffff&quot;&gt;Utente Registrato&lt;/font&gt;" style="swimlane;fontStyle=1;align=center;verticalAlign=top;childLayout=stackLayout;horizontal=1;startSize=26;horizontalStack=0;resizeParent=1;resizeParentMax=0;resizeLast=0;collapsible=1;marginBottom=0;whiteSpace=wrap;html=1;fillColor=#3333FF;" parent="1" vertex="1">
          <mxGeometry x="783" y="508" width="198" height="393" as="geometry">
            <mxRectangle x="345" y="60" width="80" height="30" as="alternateBounds" />
          </mxGeometry>
        </mxCell>
        <mxCell id="8kIfGoQ6aiD22AjwGAcP-15" value="- nome: String&lt;br&gt;&lt;div&gt;- cognome: String&lt;/div&gt;&lt;div&gt;- telefono: String&lt;br&gt;&lt;/div&gt;&lt;div&gt;- username: String&lt;/div&gt;&lt;div&gt;- password: String&lt;/div&gt;&lt;div&gt;&lt;br&gt; &lt;/div&gt;" style="text;strokeColor=none;fillColor=none;align=left;verticalAlign=top;spacingLeft=4;spacingRight=4;overflow=hidden;rotatable=0;points=[[0,0.5],[1,0.5]];portConstraint=eastwest;whiteSpace=wrap;html=1;" parent="8kIfGoQ6aiD22AjwGAcP-14" vertex="1">
          <mxGeometry y="26" width="198" height="94" as="geometry" />
        </mxCell>
        <mxCell id="8kIfGoQ6aiD22AjwGAcP-16" value="" style="line;strokeWidth=1;fillColor=none;align=left;verticalAlign=middle;spacingTop=-1;spacingLeft=3;spacingRight=3;rotatable=0;labelPosition=right;points=[];portConstraint=eastwest;strokeColor=inherit;" parent="8kIfGoQ6aiD22AjwGAcP-14" vertex="1">
          <mxGeometry y="120" width="198" height="23" as="geometry" />
        </mxCell>
        <mxCell id="NWXtjGlTUMvhvy3aEu48-33" value="&lt;div&gt;+ setNome(nome): void&lt;/div&gt;&lt;div&gt;+ setCognome(cognome): void&lt;/div&gt;&lt;div&gt;+ setTelefono(telefono): void&lt;/div&gt;&lt;div&gt;+ setUsername(username): void&lt;/div&gt;&lt;div&gt;+setPassword(password): void&lt;/div&gt;&lt;div&gt;+ getNome(): String&lt;/div&gt;&lt;div&gt;+ getCognome(): String&lt;/div&gt;&lt;div&gt;+getTelefono(): int&lt;/div&gt;&lt;div&gt;+getUsername(): String&lt;/div&gt;+ aggiungiMetodoPagamento(): boolean&lt;div&gt;+ rimuoviMetodoPagamento(id&lt;span style=&quot;background-color: initial;&quot;&gt;): boolean&lt;/span&gt;&lt;/div&gt;&lt;div&gt;&lt;span style=&quot;background-color: initial;&quot;&gt;+ getMetodiPagamento(): List&amp;lt;MetodoPagamento&amp;gt;&lt;/span&gt;&lt;/div&gt;&lt;div&gt;&lt;span style=&quot;background-color: initial;&quot;&gt;+ getAbbonamenti(): List&amp;lt;AbbonamentoUtente&amp;gt;&lt;/span&gt;&lt;/div&gt;&lt;div&gt;&lt;span style=&quot;background-color: initial;&quot;&gt;&lt;br&gt;&lt;/span&gt;&lt;/div&gt;&lt;div&gt;&lt;div&gt;&lt;br&gt;&lt;/div&gt;&lt;/div&gt;" style="text;strokeColor=none;fillColor=none;align=left;verticalAlign=top;spacingLeft=4;spacingRight=4;overflow=hidden;rotatable=0;points=[[0,0.5],[1,0.5]];portConstraint=eastwest;whiteSpace=wrap;html=1;" parent="8kIfGoQ6aiD22AjwGAcP-14" vertex="1">
          <mxGeometry y="143" width="198" height="250" as="geometry" />
        </mxCell>
        <mxCell id="oD0NaWUGl5O-4QIXvxNT-1" value="&lt;font color=&quot;#ffffff&quot;&gt;MetodoPagamento&lt;/font&gt;" style="swimlane;fontStyle=1;align=center;verticalAlign=top;childLayout=stackLayout;horizontal=1;startSize=26;horizontalStack=0;resizeParent=1;resizeParentMax=0;resizeLast=0;collapsible=1;marginBottom=0;whiteSpace=wrap;html=1;fillColor=#3333FF;" parent="1" vertex="1">
          <mxGeometry x="508" y="538" width="178" height="145" as="geometry" />
        </mxCell>
        <mxCell id="oD0NaWUGl5O-4QIXvxNT-2" value="&lt;div&gt;- id: String&lt;/div&gt;&lt;div&gt;&lt;br&gt;&lt;/div&gt;" style="text;strokeColor=none;fillColor=none;align=left;verticalAlign=top;spacingLeft=4;spacingRight=4;overflow=hidden;rotatable=0;points=[[0,0.5],[1,0.5]];portConstraint=eastwest;whiteSpace=wrap;html=1;" parent="oD0NaWUGl5O-4QIXvxNT-1" vertex="1">
          <mxGeometry y="26" width="178" height="55" as="geometry" />
        </mxCell>
        <mxCell id="oD0NaWUGl5O-4QIXvxNT-3" value="" style="line;strokeWidth=1;fillColor=none;align=center;verticalAlign=middle;spacingTop=-1;spacingLeft=3;spacingRight=3;rotatable=0;labelPosition=right;points=[];portConstraint=eastwest;strokeColor=inherit;" parent="oD0NaWUGl5O-4QIXvxNT-1" vertex="1">
          <mxGeometry y="81" width="178" height="9" as="geometry" />
        </mxCell>
        <mxCell id="NWXtjGlTUMvhvy3aEu48-31" value="&lt;font style=&quot;font-size: 12px;&quot;&gt;+ effettuaPagamento&lt;/font&gt;&lt;div&gt;&lt;font style=&quot;font-size: 12px;&quot;&gt;(indirizzoBancario): boolean&lt;/font&gt;&lt;/div&gt;&lt;div&gt;&lt;font style=&quot;font-size: 12px;&quot;&gt;+ getId(): String&lt;/font&gt;&lt;/div&gt;" style="text;strokeColor=none;fillColor=none;align=left;verticalAlign=top;spacingLeft=4;spacingRight=4;overflow=hidden;rotatable=0;points=[[0,0.5],[1,0.5]];portConstraint=eastwest;whiteSpace=wrap;html=1;" parent="oD0NaWUGl5O-4QIXvxNT-1" vertex="1">
          <mxGeometry y="90" width="178" height="55" as="geometry" />
        </mxCell>
        <mxCell id="FOD4UGKPv-UXOEkMieKc-3" value="" style="endArrow=none;html=1;edgeStyle=orthogonalEdgeStyle;rounded=0;exitX=-0.002;exitY=0.453;exitDx=0;exitDy=0;exitPerimeter=0;" parent="1" edge="1">
          <mxGeometry relative="1" as="geometry">
            <mxPoint x="782.2" y="592.6419999999999" as="sourcePoint" />
            <mxPoint x="685" y="594" as="targetPoint" />
            <Array as="points">
              <mxPoint x="782" y="594" />
            </Array>
          </mxGeometry>
        </mxCell>
        <mxCell id="FOD4UGKPv-UXOEkMieKc-10" value="1" style="edgeLabel;resizable=0;html=1;align=right;verticalAlign=bottom;" parent="1" connectable="0" vertex="1">
          <mxGeometry x="694.9971424390453" y="589.998001791402" as="geometry" />
        </mxCell>
        <mxCell id="FOD4UGKPv-UXOEkMieKc-11" value="*" style="edgeLabel;resizable=0;html=1;align=left;verticalAlign=bottom;" parent="1" connectable="0" vertex="1">
          <mxGeometry x="768" y="590" as="geometry" />
        </mxCell>
        <mxCell id="S1v_ceBOHo3dGN6JtOiM-1" value="" style="endArrow=block;endSize=16;endFill=0;html=1;rounded=0;exitX=0.525;exitY=0.016;exitDx=0;exitDy=0;exitPerimeter=0;" parent="1" source="S1v_ceBOHo3dGN6JtOiM-12" edge="1">
          <mxGeometry width="160" relative="1" as="geometry">
            <mxPoint x="862" y="917" as="sourcePoint" />
            <mxPoint x="879" y="901" as="targetPoint" />
          </mxGeometry>
        </mxCell>
        <mxCell id="S1v_ceBOHo3dGN6JtOiM-6" value="" style="endArrow=block;endSize=16;endFill=0;html=1;rounded=0;entryX=0.496;entryY=1.005;entryDx=0;entryDy=0;entryPerimeter=0;" parent="1" target="S1v_ceBOHo3dGN6JtOiM-10" edge="1">
          <mxGeometry width="160" relative="1" as="geometry">
            <mxPoint x="881" y="507" as="sourcePoint" />
            <mxPoint x="862" y="438" as="targetPoint" />
          </mxGeometry>
        </mxCell>
        <mxCell id="S1v_ceBOHo3dGN6JtOiM-7" value="&lt;div&gt;&lt;font color=&quot;#ffffff&quot;&gt;Guest&lt;/font&gt;&lt;/div&gt;&lt;div&gt;&lt;font color=&quot;#ffffff&quot;&gt;&lt;br&gt;&lt;/font&gt;&lt;/div&gt;" style="swimlane;fontStyle=1;align=center;verticalAlign=top;childLayout=stackLayout;horizontal=1;startSize=26;horizontalStack=0;resizeParent=1;resizeParentMax=0;resizeLast=0;collapsible=1;marginBottom=0;whiteSpace=wrap;html=1;fillColor=#3333FF;" parent="1" vertex="1">
          <mxGeometry x="747" y="346" width="270" height="78" as="geometry" />
        </mxCell>
        <mxCell id="S1v_ceBOHo3dGN6JtOiM-9" value="" style="line;strokeWidth=1;fillColor=none;align=left;verticalAlign=middle;spacingTop=-1;spacingLeft=3;spacingRight=3;rotatable=0;labelPosition=right;points=[];portConstraint=eastwest;strokeColor=inherit;" parent="S1v_ceBOHo3dGN6JtOiM-7" vertex="1">
          <mxGeometry y="26" width="270" height="8" as="geometry" />
        </mxCell>
        <mxCell id="S1v_ceBOHo3dGN6JtOiM-10" value="&lt;div&gt;+ ricercaPalestra(String): List: Palestra&lt;/div&gt;" style="text;strokeColor=none;fillColor=none;align=left;verticalAlign=top;spacingLeft=4;spacingRight=4;overflow=hidden;rotatable=0;points=[[0,0.5],[1,0.5]];portConstraint=eastwest;whiteSpace=wrap;html=1;" parent="S1v_ceBOHo3dGN6JtOiM-7" vertex="1">
          <mxGeometry y="34" width="270" height="44" as="geometry" />
        </mxCell>
        <mxCell id="S1v_ceBOHo3dGN6JtOiM-12" value="&lt;font color=&quot;#ffffff&quot;&gt;GestorePalestra&lt;/font&gt;" style="swimlane;fontStyle=1;align=center;verticalAlign=top;childLayout=stackLayout;horizontal=1;startSize=26;horizontalStack=0;resizeParent=1;resizeParentMax=0;resizeLast=0;collapsible=1;marginBottom=0;whiteSpace=wrap;html=1;fillColor=#3333FF;" parent="1" vertex="1">
          <mxGeometry x="716" y="950" width="310" height="101" as="geometry" />
        </mxCell>
        <mxCell id="S1v_ceBOHo3dGN6JtOiM-13" value="- nomePalestra: String" style="text;strokeColor=none;fillColor=none;align=left;verticalAlign=top;spacingLeft=4;spacingRight=4;overflow=hidden;rotatable=0;points=[[0,0.5],[1,0.5]];portConstraint=eastwest;whiteSpace=wrap;html=1;" parent="S1v_ceBOHo3dGN6JtOiM-12" vertex="1">
          <mxGeometry y="26" width="310" height="26" as="geometry" />
        </mxCell>
        <mxCell id="S1v_ceBOHo3dGN6JtOiM-14" value="" style="line;strokeWidth=1;fillColor=none;align=left;verticalAlign=middle;spacingTop=-1;spacingLeft=3;spacingRight=3;rotatable=0;labelPosition=right;points=[];portConstraint=eastwest;strokeColor=inherit;" parent="S1v_ceBOHo3dGN6JtOiM-12" vertex="1">
          <mxGeometry y="52" width="310" height="8" as="geometry" />
        </mxCell>
        <mxCell id="S1v_ceBOHo3dGN6JtOiM-15" value="&lt;div&gt;+ setNomePalestra(nomePalestra): String&lt;/div&gt;&lt;div&gt;+ getNomePalestra(): void&lt;/div&gt;" style="text;strokeColor=none;fillColor=none;align=left;verticalAlign=top;spacingLeft=4;spacingRight=4;overflow=hidden;rotatable=0;points=[[0,0.5],[1,0.5]];portConstraint=eastwest;whiteSpace=wrap;html=1;" parent="S1v_ceBOHo3dGN6JtOiM-12" vertex="1">
          <mxGeometry y="60" width="310" height="41" as="geometry" />
        </mxCell>
        <mxCell id="NWXtjGlTUMvhvy3aEu48-5" value="AccountPayPal" style="swimlane;fontStyle=1;align=center;verticalAlign=top;childLayout=stackLayout;horizontal=1;startSize=26;horizontalStack=0;resizeParent=1;resizeParentMax=0;resizeLast=0;collapsible=1;marginBottom=0;whiteSpace=wrap;html=1;fillColor=#0050ef;fontColor=#ffffff;strokeColor=#001DBC;" parent="1" vertex="1">
          <mxGeometry x="166" y="479" width="188" height="145" as="geometry" />
        </mxCell>
        <mxCell id="NWXtjGlTUMvhvy3aEu48-6" value="- email: String&lt;div&gt;- password: String&lt;/div&gt;" style="text;strokeColor=none;fillColor=none;align=left;verticalAlign=top;spacingLeft=4;spacingRight=4;overflow=hidden;rotatable=0;points=[[0,0.5],[1,0.5]];portConstraint=eastwest;whiteSpace=wrap;html=1;" parent="NWXtjGlTUMvhvy3aEu48-5" vertex="1">
          <mxGeometry y="26" width="188" height="37" as="geometry" />
        </mxCell>
        <mxCell id="NWXtjGlTUMvhvy3aEu48-7" value="" style="line;strokeWidth=1;fillColor=none;align=left;verticalAlign=middle;spacingTop=-1;spacingLeft=3;spacingRight=3;rotatable=0;labelPosition=right;points=[];portConstraint=eastwest;strokeColor=inherit;" parent="NWXtjGlTUMvhvy3aEu48-5" vertex="1">
          <mxGeometry y="63" width="188" height="12" as="geometry" />
        </mxCell>
        <mxCell id="rgF5f9R7kBIM-queGsUo-1" value="+ setEmail(email): void&lt;div&gt;+ setPassword(password) : void&lt;/div&gt;&lt;div style=&quot;&quot;&gt;+getEmail(): String&lt;/div&gt;&lt;div style=&quot;&quot;&gt;&lt;br&gt;&lt;/div&gt;" style="text;html=1;align=left;verticalAlign=middle;resizable=0;points=[];autosize=1;strokeColor=none;fillColor=none;" vertex="1" parent="NWXtjGlTUMvhvy3aEu48-5">
          <mxGeometry y="75" width="188" height="70" as="geometry" />
        </mxCell>
        <mxCell id="NWXtjGlTUMvhvy3aEu48-9" value="CartaDiCredito" style="swimlane;fontStyle=1;align=center;verticalAlign=top;childLayout=stackLayout;horizontal=1;startSize=26;horizontalStack=0;resizeParent=1;resizeParentMax=0;resizeLast=0;collapsible=1;marginBottom=0;whiteSpace=wrap;html=1;fillColor=#0050ef;fontColor=#ffffff;strokeColor=#001DBC;" parent="1" vertex="1">
          <mxGeometry x="169" y="652" width="188" height="228" as="geometry" />
        </mxCell>
        <mxCell id="NWXtjGlTUMvhvy3aEu48-10" value="- nome: String&lt;div&gt;- cognome: String&lt;/div&gt;&lt;div&gt;- circuito: String&lt;/div&gt;&lt;div&gt;- dataScadenza: Date&lt;/div&gt;&lt;div&gt;- cvv: int&lt;/div&gt;&lt;div&gt;- numero: Long&lt;/div&gt;" style="text;strokeColor=none;fillColor=none;align=left;verticalAlign=top;spacingLeft=4;spacingRight=4;overflow=hidden;rotatable=0;points=[[0,0.5],[1,0.5]];portConstraint=eastwest;whiteSpace=wrap;html=1;" parent="NWXtjGlTUMvhvy3aEu48-9" vertex="1">
          <mxGeometry y="26" width="188" height="97" as="geometry" />
        </mxCell>
        <mxCell id="NWXtjGlTUMvhvy3aEu48-11" value="" style="line;strokeWidth=1;fillColor=none;align=left;verticalAlign=middle;spacingTop=-1;spacingLeft=3;spacingRight=3;rotatable=0;labelPosition=right;points=[];portConstraint=eastwest;strokeColor=inherit;" parent="NWXtjGlTUMvhvy3aEu48-9" vertex="1">
          <mxGeometry y="123" width="188" height="8" as="geometry" />
        </mxCell>
        <mxCell id="NWXtjGlTUMvhvy3aEu48-12" value="&lt;div&gt;+ setNome(nome): void&lt;/div&gt;&lt;div&gt;+ setCognome(cognome): void&lt;/div&gt;&lt;div&gt;+ setDataScadenza(data): void&lt;/div&gt;&lt;div&gt;+ setCvv(cvv): void&lt;/div&gt;&lt;div&gt;+ setNumero(numero): void&lt;/div&gt;&lt;div&gt;+ getDatiCarta(): String&lt;/div&gt;" style="text;strokeColor=none;fillColor=none;align=left;verticalAlign=top;spacingLeft=4;spacingRight=4;overflow=hidden;rotatable=0;points=[[0,0.5],[1,0.5]];portConstraint=eastwest;whiteSpace=wrap;html=1;" parent="NWXtjGlTUMvhvy3aEu48-9" vertex="1">
          <mxGeometry y="131" width="188" height="97" as="geometry" />
        </mxCell>
        <mxCell id="NWXtjGlTUMvhvy3aEu48-15" value="" style="endArrow=block;endSize=16;endFill=0;html=1;rounded=0;entryX=-0.004;entryY=0.618;entryDx=0;entryDy=0;entryPerimeter=0;" parent="1" target="oD0NaWUGl5O-4QIXvxNT-2" edge="1">
          <mxGeometry width="160" relative="1" as="geometry">
            <mxPoint x="428" y="597" as="sourcePoint" />
            <mxPoint x="873" y="688" as="targetPoint" />
          </mxGeometry>
        </mxCell>
        <mxCell id="NWXtjGlTUMvhvy3aEu48-16" value="" style="endArrow=none;html=1;edgeStyle=orthogonalEdgeStyle;rounded=0;entryX=1;entryY=0.5;entryDx=0;entryDy=0;exitX=0.984;exitY=0.492;exitDx=0;exitDy=0;exitPerimeter=0;" parent="1" source="NWXtjGlTUMvhvy3aEu48-25" target="NWXtjGlTUMvhvy3aEu48-10" edge="1">
          <mxGeometry relative="1" as="geometry">
            <mxPoint x="430" y="507" as="sourcePoint" />
            <mxPoint x="678" y="602.0060000000001" as="targetPoint" />
            <Array as="points">
              <mxPoint x="428" y="519" />
              <mxPoint x="428" y="727" />
            </Array>
          </mxGeometry>
        </mxCell>
        <mxCell id="NWXtjGlTUMvhvy3aEu48-25" value="" style="line;strokeWidth=1;fillColor=none;align=left;verticalAlign=middle;spacingTop=-1;spacingLeft=3;spacingRight=3;rotatable=0;labelPosition=right;points=[];portConstraint=eastwest;strokeColor=inherit;" parent="1" vertex="1">
          <mxGeometry x="329" y="515" width="99" height="8" as="geometry" />
        </mxCell>
        <mxCell id="NWXtjGlTUMvhvy3aEu48-26" value="{complete,disjoint}" style="text;html=1;align=center;verticalAlign=middle;resizable=0;points=[];autosize=1;strokeColor=none;fillColor=none;" parent="1" vertex="1">
          <mxGeometry x="321" y="624" width="115" height="26" as="geometry" />
        </mxCell>
      </root>
    </mxGraphModel>
  </diagram>
  <diagram id="AcSOhgdw4KI_gT7eJCMP" name="Pagina-2">
    <mxGraphModel dx="2376" dy="1645" grid="0" gridSize="10" guides="1" tooltips="1" connect="1" arrows="1" fold="1" page="0" pageScale="1" pageWidth="827" pageHeight="1169" math="0" shadow="0">
      <root>
        <mxCell id="0" />
        <mxCell id="1" parent="0" />
        <mxCell id="QURLfUNbjcxTIiWOLCq2-30" value="Interfaccia GestioneUtente" style="shape=folder;fontStyle=1;spacingTop=10;tabWidth=40;tabHeight=14;tabPosition=left;html=1;whiteSpace=wrap;" vertex="1" parent="1">
          <mxGeometry x="-568" y="-503" width="165" height="129" as="geometry" />
        </mxCell>
        <mxCell id="QURLfUNbjcxTIiWOLCq2-31" value="Interfaccia GestionePalestra" style="shape=folder;fontStyle=1;spacingTop=10;tabWidth=40;tabHeight=14;tabPosition=left;html=1;whiteSpace=wrap;" vertex="1" parent="1">
          <mxGeometry x="-362" y="-503" width="165" height="129" as="geometry" />
        </mxCell>
        <mxCell id="QURLfUNbjcxTIiWOLCq2-32" value="Interfaccia GestioneAmministrazione" style="shape=folder;fontStyle=1;spacingTop=10;tabWidth=40;tabHeight=14;tabPosition=left;html=1;whiteSpace=wrap;" vertex="1" parent="1">
          <mxGeometry x="-167" y="-496" width="165" height="129" as="geometry" />
        </mxCell>
        <mxCell id="QURLfUNbjcxTIiWOLCq2-33" value="Interfaccia Login" style="shape=folder;fontStyle=1;spacingTop=10;tabWidth=40;tabHeight=14;tabPosition=left;html=1;whiteSpace=wrap;" vertex="1" parent="1">
          <mxGeometry x="26" y="-492" width="165" height="129" as="geometry" />
        </mxCell>
        <mxCell id="QURLfUNbjcxTIiWOLCq2-34" value="Interfaccia Log" style="shape=folder;fontStyle=1;spacingTop=10;tabWidth=40;tabHeight=14;tabPosition=left;html=1;whiteSpace=wrap;" vertex="1" parent="1">
          <mxGeometry x="224" y="-492" width="165" height="129" as="geometry" />
        </mxCell>
        <mxCell id="QURLfUNbjcxTIiWOLCq2-35" value="GestioneUtente" style="shape=folder;fontStyle=1;spacingTop=10;tabWidth=40;tabHeight=14;tabPosition=left;html=1;whiteSpace=wrap;" vertex="1" parent="1">
          <mxGeometry x="-570" y="-264" width="165" height="129" as="geometry" />
        </mxCell>
        <mxCell id="QURLfUNbjcxTIiWOLCq2-36" value="GestioneAmministrazione" style="shape=folder;fontStyle=1;spacingTop=10;tabWidth=40;tabHeight=14;tabPosition=left;html=1;whiteSpace=wrap;" vertex="1" parent="1">
          <mxGeometry x="-359" y="-264" width="165" height="129" as="geometry" />
        </mxCell>
        <mxCell id="QURLfUNbjcxTIiWOLCq2-37" value="Log" style="shape=folder;fontStyle=1;spacingTop=10;tabWidth=40;tabHeight=14;tabPosition=left;html=1;whiteSpace=wrap;" vertex="1" parent="1">
          <mxGeometry x="227" y="-261" width="165" height="129" as="geometry" />
        </mxCell>
        <mxCell id="QURLfUNbjcxTIiWOLCq2-38" value="Login" style="shape=folder;fontStyle=1;spacingTop=10;tabWidth=40;tabHeight=14;tabPosition=left;html=1;whiteSpace=wrap;" vertex="1" parent="1">
          <mxGeometry x="45" y="-261" width="165" height="129" as="geometry" />
        </mxCell>
      </root>
    </mxGraphModel>
  </diagram>
</mxfile>
